<svg id="Layer_1" data-name="Layer 1" xmlns="http://www.w3.org/2000/svg" viewBox="0 0 280.432 271.238">
  <defs>
    <style>
      .cls-1 {
        fill: #00a0de;
        stroke: #0062ae;
        stroke-miterlimit: 10;
        stroke-width: 11px;
      }
    </style>
  </defs>
  <title>current identitiy</title>
  <path class="cls-1" d="M351.67,377.546q0,5.812-.516,11.495-.544,6.034-1.646,11.906c-3.128,17.105-5.3,36.979-10.92,53.718a84.188,84.188,0,0,1-3.886,9.622c-10.491,20.452-32.88,25.831-54.916,27.229-3.148.2-6.289.321-9.4.448C267,491,262,492,261,494c-17.4,13.8-37.68,19.32-56.273,15.757a57.184,57.184,0,0,1-9.156-2.557c-6.994-4-13.876-8.338-20.58-13.026q-3.352-2.344-6.642-4.8A25.983,25.983,0,0,1,159,481c-17-28-37-49-60.452-70.154a98.589,98.589,0,0,1-5.442-8.377c-8.358-14.307-13.422-29.431-9.539-43.524a36.162,36.162,0,0,1,4.155-9.478C114,333,125,305,132,275c2-9,10-16,19.51-17.069a51.107,51.107,0,0,1,8.69-1.391c11.951-.961,25.1,1.118,36.406-.224,3.2-.275,6.438-.562,9.675-.81q4.248-.326,8.5-.555t8.474-.329c17.875-2.311,38.563-5.967,55.209-2.838a46.614,46.614,0,0,1,9.448,2.78C297,258,303,265,307,272c8,14,14,26,21,40,3,7,3,15,6,22,2,5,6,8,8.138,12.5q2.336,3.262,4.862,6.5c4,4,4,10,4.307,15.411C351.551,371.388,351.668,374.45,351.67,377.546Z" transform="translate(-76.738 -245.073)"/>
</svg>
